<svg width="56" height="56" viewBox="0 0 56 56" fill="none" xmlns="http://www.w3.org/2000/svg">
<path d="M37.1884 28.8506C37.3708 28.9262 37.4912 29.1051 37.4912 29.3012V31.1863V34.7089C37.4912 35.0151 37.2091 35.2662 37.0061 35.2662H35.9363C35.3824 35.2697 34.8114 35.3419 34.2369 35.4864C31.1718 36.257 29.18 38.8473 29.7889 41.2691C30.3978 43.6909 33.3769 45.0325 36.4419 44.2619C39.1183 43.5911 40.9725 41.534 41 39.4115V31.6851V7.48791C41 7.17487 40.7076 6.94094 40.4014 7.01318L19.1902 11.9324C18.97 11.984 18.8118 12.1801 18.8118 12.4072V38.4861C18.8118 38.7923 18.5297 39.0434 18.3267 39.0434H17.2569C16.703 39.0468 16.132 39.1191 15.5575 39.2636C12.4924 40.0341 10.5006 42.6245 11.1095 45.0463C11.7184 47.4715 14.6975 48.8097 17.7625 48.0391C20.4389 47.3683 22.2931 45.3111 22.3206 43.1886V33.2951C22.3206 33.1988 22.3619 33.1093 22.4376 33.0508L29.8715 26.2636C30.0676 26.0848 30.3462 26.0366 30.5904 26.1364L37.1884 28.8506ZM29.9884 22.1769C29.7408 22.0771 29.4587 22.1253 29.266 22.3076L22.84 28.2657C22.6336 28.4343 22.3206 28.2898 22.3206 28.0215V15.197C22.3206 14.97 22.4754 14.7739 22.699 14.7223L36.8926 11.4336C37.1988 11.3614 37.4912 11.5953 37.4912 11.9084V24.5264C37.4912 24.8739 37.1403 25.1078 36.8169 24.9771L29.9884 22.1734V22.1769Z" fill="#4E4E4E"/>
</svg>
